# xmcd
#
# Track frame offsets: 
#        150
#        11030
#        23438
#        33395
#        42473
#        55560
#        66870
#        77120
#        90093
#        98330
#        111123
#        123045
#        133625
#        149373
#        165278
#        173348
#        186765
#        196070
#        204910
#        213663
#
# Disc length: 3010 seconds
#
# Revision: 2
# Processed by: cddbd v1.5.2PL0 Copyright (c) Steve Scherf et al.
# Submitted via: ExactAudioCopy v1.0b4
#
DISCID=f00bc014
DTITLE=Clifton Chenier - Zodico Blues and Boogie
DYEAR=1993
DGENRE=Cajun, Zydeco, Blues
TTITLE0=Boppin' The Rock
TTITLE1=Ay Te Te Fee
TTITLE2=The Cats Dreamin'
TTITLE3=Squeeze Box Boogie
TTITLE4=The Things I Did For You
TTITLE5=Think It Over
TTITLE6=Zodico Stomp
TTITLE7=Yesterday (I Lost My Best Friend)
TTITLE8=Chenier's Boogie
TTITLE9=I'm On My Way (Back Home To You)
TTITLE10=All Night Long
TTITLE11=Opelousas Hop
TTITLE12=I'm On My Way (Back Home To You) (Take 1)
TTITLE13=Wherever You Go I'll Go
TTITLE14=Opelousas Hop (Take 4)
TTITLE15=Clifton's Dreamin' (Take 3)
TTITLE16=Chenier's Boogie (Take 4)
TTITLE17=Wherever You Go I'll Go (Take 6)
TTITLE18=Ay Te Te Fee (Take 8)
TTITLE19=All Night Long
EXTD=Specialty Records 1993 SPCD-7039-2. Remastered at Fantasy, Berkel
EXTD=ey, by Kirk Felton. This is a compilation of mid-50's sessions.
EXTT0=
EXTT1=
EXTT2=
EXTT3=
EXTT4=
EXTT5=
EXTT6=
EXTT7=
EXTT8=
EXTT9=
EXTT10=
EXTT11=
EXTT12=
EXTT13=
EXTT14=
EXTT15=
EXTT16=
EXTT17=
EXTT18=
EXTT19=
PLAYORDER=
